<?xml version="1.0" standalone="no"?>
<!DOCTYPE svg PUBLIC "-//W3C//DTD SVG 20010904//EN"
 "http://www.w3.org/TR/2001/REC-SVG-20010904/DTD/svg10.dtd">
<svg version="1.0" xmlns="http://www.w3.org/2000/svg"
 width="512.000000pt" height="512.000000pt" viewBox="0 0 512.000000 512.000000"
 preserveAspectRatio="xMidYMid meet">
<metadata>
Created by potrace 1.14, written by Peter Selinger 2001-2017
</metadata>
<g transform="translate(0.000000,512.000000) scale(0.100000,-0.100000)"
fill="#000000" stroke="none">
<path d="M1810 4803 c-198 -25 -364 -73 -522 -153 -318 -160 -509 -364 -609
-650 -28 -80 -31 -107 -14 -140 21 -40 53 -60 98 -60 33 0 47 8 110 68 204
193 446 285 721 276 183 -6 387 -75 522 -178 85 -64 181 -164 163 -170 -71
-21 -114 -43 -148 -77 -54 -54 -89 -151 -91 -249 0 -16 -10 -32 -30 -45 -74
-49 -101 -132 -64 -194 66 -112 253 -129 413 -38 37 21 91 73 91 88 0 5 4 9 9
9 10 0 5 -87 -10 -175 -32 -181 -118 -319 -236 -376 -91 -44 -268 -35 -443 21
-40 13 -70 33 -113 75 -107 105 -234 142 -356 105 -142 -43 -233 -143 -258
-285 -9 -47 -9 -77 -3 -202 3 -46 -1 -57 -39 -113 -57 -83 -86 -116 -208 -237
-109 -109 -219 -196 -293 -233 -26 -13 -70 -25 -105 -27 -167 -12 -290 -98
-328 -230 -29 -99 -5 -178 86 -279 31 -33 80 -79 110 -102 48 -37 55 -48 60
-87 5 -36 2 -54 -16 -88 -30 -57 -29 -168 1 -247 62 -159 293 -297 605 -361
84 -17 208 -20 262 -6 337 86 988 427 1344 705 207 161 344 344 367 491 4 24
12 44 18 46 6 2 52 6 101 9 50 4 106 9 125 12 103 15 213 37 275 56 39 11 98
22 132 24 68 4 182 28 214 44 17 9 19 7 19 -19 0 -16 10 -65 23 -108 21 -72
22 -85 10 -134 -17 -76 -16 -160 3 -199 21 -40 81 -69 132 -63 21 2 60 13 89
25 52 20 52 20 80 1 51 -35 123 -63 173 -68 84 -7 140 48 160 156 42 231 20
446 -67 659 -79 192 -193 310 -332 341 -34 7 -61 18 -61 24 0 5 7 48 15 95 34
191 39 493 10 641 -19 98 -20 91 11 82 16 -4 63 -8 104 -8 177 1 300 88 287
202 -6 56 -30 89 -90 128 -37 23 -47 36 -47 57 0 51 -42 141 -88 190 -61 65
-131 98 -225 105 -65 5 -81 3 -130 -20 -32 -15 -78 -48 -110 -81 l-55 -57 -62
40 c-34 22 -69 43 -78 46 -10 3 -32 37 -50 75 -114 238 -383 480 -728 653
-221 111 -415 173 -629 203 -53 7 -263 12 -305 7z"/>
<path d="M2385 399 c-3 -4 2 -6 10 -5 21 3 28 13 10 13 -9 0 -18 -4 -20 -8z"/>
<path d="M2326 318 c3 -5 10 -6 15 -3 13 9 11 12 -6 12 -8 0 -12 -4 -9 -9z"/>
<path d="M1230 279 c0 -5 5 -7 10 -4 6 3 10 8 10 11 0 2 -4 4 -10 4 -5 0 -10
-5 -10 -11z"/>
<path d="M3550 280 c0 -5 5 -10 11 -10 5 0 7 5 4 10 -3 6 -8 10 -11 10 -2 0
-4 -4 -4 -10z"/>
<path d="M1556 233 c-6 -14 -5 -15 5 -6 7 7 10 15 7 18 -3 3 -9 -2 -12 -12z"/>
<path d="M2947 159 c7 -7 15 -10 18 -7 3 3 -2 9 -12 12 -14 6 -15 5 -6 -5z"/>
</g>
</svg>
